<svg width="116" height="115" viewBox="0 0 116 115" fill="none" xmlns="http://www.w3.org/2000/svg">
<g clip-path="url(#clip0_24_239)">
<path d="M58.0553 114.017C89.814 114.017 115.56 88.4935 115.56 57.0085C115.56 25.5236 89.814 0 58.0553 0C26.2966 0 0.551025 25.5236 0.551025 57.0085C0.551025 88.4935 26.2966 114.017 58.0553 114.017Z" fill="white"/>
<path d="M62.5645 30.1808C57.5586 33.765 50.1655 47.6426 46.9209 53.961L58.3929 64.3C64.6504 60.3942 76.0528 53.4094 79.9463 48.4466C84.8131 42.2431 89.6801 25.2572 87.9419 23.2879C86.2036 21.3186 68.822 25.7005 62.5645 30.1808Z" fill="white" stroke="#A259FF" stroke-width="4.95726"/>
<path d="M72.9936 43.6214C76.0655 43.6214 78.5557 41.1526 78.5557 38.1072C78.5557 35.0618 76.0655 32.593 72.9936 32.593C69.9217 32.593 67.4314 35.0618 67.4314 38.1072C67.4314 41.1526 69.9217 43.6214 72.9936 43.6214Z" fill="#A259FF"/>
<path d="M64.6502 49.1358C66.1862 49.1358 67.4313 47.9014 67.4313 46.3787C67.4313 44.856 66.1862 43.6216 64.6502 43.6216C63.1143 43.6216 61.8691 44.856 61.8691 46.3787C61.8691 47.9014 63.1143 49.1358 64.6502 49.1358Z" fill="#A259FF"/>
<path d="M23.9773 78.4299C25.924 70.1586 35.4492 62.8063 39.9684 60.1641L42.0542 63.2658C32.0424 67.4015 29.3076 77.396 29.1917 81.8763C35.5882 83.2549 44.3718 74.4092 47.964 69.814L50.0498 71.1925C46.9211 80.4978 39.9684 85.6673 34.4063 87.3905C29.9565 88.7691 24.6725 88.4244 22.5867 88.0798C22.4709 87.85 22.5867 85.5984 23.9773 78.4299Z" fill="#A259FF"/>
<path d="M58.0454 84.6335C61.9388 78.5679 61.0582 74.4093 60.1311 73.2605L64.6505 71.5373C66.041 74.2944 65.5775 75.9027 64.9981 76.3622C64.9981 76.3622 68.1268 74.6391 69.1697 68.7802L72.9936 66.7124C73.4572 68.6653 73.4804 73.8808 69.8649 79.1193C66.2496 84.3578 60.4788 84.9781 58.0454 84.6335Z" fill="#A259FF"/>
<path d="M38.2304 50.8589C31.5557 49.4803 27.8013 51.8928 26.7584 53.2713C26.4108 51.5482 26.7584 46.93 30.93 42.2429C35.1017 37.5558 41.9384 37.3031 44.8355 37.7626L42.0543 41.8983C38.7171 42.174 36.2605 44.5405 35.4493 45.6893C38.2304 45.1379 39.3891 45.9191 39.6209 46.3786L38.2304 50.8589Z" fill="#A259FF"/>
</g>
<defs>
<clipPath id="clip0_24_239">
<rect width="116" height="114.017" fill="white"/>
</clipPath>
</defs>
</svg>
