<svg width="116" height="115" viewBox="0 0 116 115" fill="none" xmlns="http://www.w3.org/2000/svg">
<g clip-path="url(#clip0_24_248)">
<g clip-path="url(#clip1_24_248)">
<path d="M58.0623 115C89.8186 115 115.562 89.2564 115.562 57.5C115.562 25.7436 89.8186 0 58.0623 0C26.3059 0 0.562256 25.7436 0.562256 57.5C0.562256 89.2564 26.3059 115 58.0623 115Z" fill="white"/>
<path d="M45.8002 78.1428L38.9907 86.4999H60.3479V78.1428H45.8002Z" fill="#A259FF"/>
<path d="M31.2526 68.2381H60.6574V73.5H25.9907V28H81.3955V39.1429H75.8241V33.881H31.2526V68.2381Z" fill="#A259FF"/>
<path fill-rule="evenodd" clip-rule="evenodd" d="M72.3716 44.0952C67.9533 44.0952 64.3716 47.677 64.3716 52.0952V78.1905C64.3716 82.6088 67.9533 86.1905 72.3716 86.1905H81.1335C85.5518 86.1905 89.1335 82.6087 89.1335 78.1905V52.0952C89.1335 47.677 85.5518 44.0952 81.1335 44.0952H72.3716ZM74.2763 46.5715C73.2506 46.5715 72.4192 47.4029 72.4192 48.4286C72.4192 49.4543 73.2506 50.2857 74.2763 50.2857H79.2287C80.2543 50.2857 81.0858 49.4543 81.0858 48.4286C81.0858 47.4029 80.2543 46.5715 79.2287 46.5715H74.2763ZM79.8477 81.2381C79.8477 82.9476 78.4619 84.3334 76.7525 84.3334C75.043 84.3334 73.6572 82.9476 73.6572 81.2381C73.6572 79.5287 75.043 78.1429 76.7525 78.1429C78.4619 78.1429 79.8477 79.5287 79.8477 81.2381ZM86.6572 52.1429H68.0858V75.6667H86.6572V52.1429Z" fill="#A259FF"/>
</g>
</g>
<defs>
<clipPath id="clip0_24_248">
<rect width="116" height="115" fill="white"/>
</clipPath>
<clipPath id="clip1_24_248">
<rect width="116" height="115" fill="white"/>
</clipPath>
</defs>
</svg>
