<svg width="116" height="115" viewBox="0 0 116 115" fill="none" xmlns="http://www.w3.org/2000/svg">
<g clip-path="url(#clip0_24_257)">
<path d="M58.104 115C89.8604 115 115.604 89.2564 115.604 57.5C115.604 25.7436 89.8604 0 58.104 0C26.3476 0 0.604004 25.7436 0.604004 57.5C0.604004 89.2564 26.3476 115 58.104 115Z" fill="white"/>
<path d="M28.6035 61.7963L40.4183 78.9815L51.159 61.7963H45.2516L43.6405 40.3148L54.3812 47.8333V24.7407L50.622 39.2407L37.1961 26.3518L33.9738 61.7963H28.6035Z" fill="#A259FF"/>
<path d="M64.1406 42.1945L74.3443 25.0093L86.1591 42.1945H80.7887L77.5665 77.1019L64.1406 64.7501L60.3813 78.713V55.0834L71.1222 63.139L68.9739 42.1945H64.1406Z" fill="#A259FF"/>
</g>
<defs>
<clipPath id="clip0_24_257">
<rect width="116" height="115" fill="white"/>
</clipPath>
</defs>
</svg>
