<svg width="210" height="118" viewBox="0 0 210 118" fill="none" xmlns="http://www.w3.org/2000/svg">
<path d="M120.413 106.5V8.5H140.913L142.913 22C142.913 22 149.913 7.00006 174.413 7.00006C205.413 7.00006 209.913 37.0001 209.913 37.0001V106.5H185.913V52.5C185.913 52.5 188.413 29.45 166.413 30C144.413 30.55 144.913 52.5 144.913 52.5V106.5H120.413Z" fill="white"/>
<path d="M71.4138 10.5001V33.5001C100.913 47 91.4126 96.2864 54.9126 96.5C20.4126 96.7019 7.4126 48 38.9139 34.5001L38.9137 11.5001C-23.5875 33.5001 -5.58527 117.5 55.9139 117.5C117.413 117.5 131.913 31 71.4138 10.5001Z" fill="white"/>
<rect x="44.9126" width="21" height="71" rx="10.5" fill="white"/>
</svg>
